# xmcd
#
# Track frame offsets:
#	183
#	13230
#	27353
#	38435
#	50065
#	63128
#	81823
#	95308
#	106048
#	123438
#	140475
#
# Disc length: 2206 seconds
#
# Revision: 1
# Processed by: cddbd v1.5.1PL0 Copyright (c) Steve Scherf et al.
# Submitted via: MusicWizard 7.0.2
#
DISCID=85089c0b
DTITLE=Kris Kristofferson and Rita Coolidge - Natural Act
DYEAR=1994
DGENRE=Country
TTITLE0=Blue As I Do
TTITLE1=Not Everyone Knows
TTITLE2=I Fought The Law
TTITLE3=Number One
TTITLE4=You're Gonna Love Yourself (In The Morning)
TTITLE5=Loving You Was Easier (Than Anything I'll Ever Do Again)
TTITLE6=Back In My Baby's Arms
TTITLE7=Pleaes Don't Tell Me How The Story Ends
TTITLE8=Hoola Hoop
TTITLE9=Love Don't Live Here Anymore
TTITLE10=Silver Mantis
EXTD=(c) Karussell Germany, originally on Metrnonome/Polygram Records, Produced by David Anderle\n
EXTD=upc 731455077025
EXTT0=
EXTT1=
EXTT2=
EXTT3=
EXTT4=
EXTT5=
EXTT6=
EXTT7=
EXTT8=
EXTT9=
EXTT10=
PLAYORDER=
